<?xml version="1.0" encoding="UTF-8"?>
<svg version="1.1" xmlns="http://www.w3.org/2000/svg" width="225" height="225">
<path d="M0 0 C74.25 0 148.5 0 225 0 C225 74.25 225 148.5 225 225 C150.75 225 76.5 225 0 225 C0 150.75 0 76.5 0 0 Z " fill="#FEFEFE" transform="translate(0,0)"/>
<path d="M0 0 C0.88171875 -0.00773437 1.7634375 -0.01546875 2.671875 -0.0234375 C16.62277345 0.01747423 29.40046087 4.02192373 40.9375 11.875 C41.50702393 12.25922119 42.07654785 12.64344238 42.66333008 13.03930664 C44.23828125 14.1640625 44.23828125 14.1640625 46.625 16.25 C46.625 19.25 46.625 19.25 44.97265625 21.24291992 C44.21855469 21.98131104 43.46445313 22.71970215 42.6875 23.48046875 C41.87539062 24.28291016 41.06328125 25.08535156 40.2265625 25.91210938 C39.36804688 26.74548828 38.50953125 27.57886719 37.625 28.4375 C36.76648438 29.28248047 35.90796875 30.12746094 35.0234375 30.99804688 C32.8971635 33.08888298 30.76421536 35.17241983 28.625 37.25 C26.31860978 36.09819857 24.01510882 34.9413705 21.71484375 33.77734375 C20.67457031 33.25269531 19.63429688 32.72804687 18.5625 32.1875 C17.51964844 31.66027344 16.47679687 31.13304688 15.40234375 30.58984375 C7.22370774 26.6443133 -3.82490868 26.98093819 -12.375 29.875 C-23.54000693 34.65522752 -31.10448159 43.00160188 -36.4296875 53.7578125 C-40.15823893 63.58762989 -39.50769179 75.67955585 -35.375 85.25 C-29.51886806 97.03324729 -22.37834518 103.02047242 -10.375 108.25 C-0.43485748 111.56338084 12.9328133 109.7364138 22.1875 105.1875 C31.36045039 99.70297372 34.65845507 93.16636232 38.625 83.25 C26.415 83.25 14.205 83.25 1.625 83.25 C1.625 74.34 1.625 65.43 1.625 56.25 C23.075 56.25 44.525 56.25 66.625 56.25 C71.27826799 74.86307195 66.04559585 94.35028859 56.66748047 110.55078125 C48.20342885 124.34698717 33.68607486 131.82955874 18.625 136.25 C0.11282585 139.77405665 -18.36123525 137.65905273 -34.71484375 128.11328125 C-51.72985911 116.19527489 -62.51511718 100.13732068 -66.83203125 79.79296875 C-69.55285689 62.03909207 -65.7904591 44.79227077 -55.75 29.828125 C-42.20222541 11.63898319 -22.99971534 -0.19999752 0 0 Z " fill="#34A353" transform="translate(112.375,43.75)"/>
<path d="M0 0 C0.88171875 -0.00773437 1.7634375 -0.01546875 2.671875 -0.0234375 C16.62277345 0.01747423 29.40046087 4.02192373 40.9375 11.875 C41.50702393 12.25922119 42.07654785 12.64344238 42.66333008 13.03930664 C44.23828125 14.1640625 44.23828125 14.1640625 46.625 16.25 C46.625 19.25 46.625 19.25 44.97265625 21.24291992 C44.21855469 21.98131104 43.46445313 22.71970215 42.6875 23.48046875 C41.87539062 24.28291016 41.06328125 25.08535156 40.2265625 25.91210938 C39.36804688 26.74548828 38.50953125 27.57886719 37.625 28.4375 C36.76648438 29.28248047 35.90796875 30.12746094 35.0234375 30.99804688 C32.8971635 33.08888298 30.76421536 35.17241983 28.625 37.25 C26.31860978 36.09819857 24.01510882 34.9413705 21.71484375 33.77734375 C20.67457031 33.25269531 19.63429688 32.72804687 18.5625 32.1875 C17.51964844 31.66027344 16.47679687 31.13304688 15.40234375 30.58984375 C7.22370774 26.6443133 -3.82490868 26.98093819 -12.375 29.875 C-23.54000693 34.65522752 -31.10448159 43.00160188 -36.4296875 53.7578125 C-38.28988351 58.66196562 -38.51249212 63.48453258 -38.5 68.6875 C-38.50257812 69.75871094 -38.50515625 70.82992187 -38.5078125 71.93359375 C-38.47666382 75.32682132 -38.47666382 75.32682132 -37.53125 78.84765625 C-37.375 82.25 -37.375 82.25 -39.5859375 84.875 C-41.15214844 86.050625 -41.15214844 86.050625 -42.75 87.25 C-43.56960205 87.88010986 -43.56960205 87.88010986 -44.40576172 88.52294922 C-45.5175885 89.37507923 -46.6369388 90.21748448 -47.76367188 91.04980469 C-50.06071004 92.76075008 -52.27149746 94.57617605 -54.5 96.375 C-58.11693548 99.25 -58.11693548 99.25 -60.375 99.25 C-68.5128774 80.95010311 -69.71052774 63.1388954 -63.375 44.25 C-56.01052948 26.01922138 -42.17337874 12.2072184 -24.1875 4.4375 C-15.99369508 1.07975896 -8.77608764 -0.07631381 0 0 Z " fill="#E54335" transform="translate(112.375,43.75)"/>
<path d="M0 0 C21.45 0 42.9 0 65 0 C69.64294604 18.57178417 64.43627278 38.07512956 55.09960938 54.26123047 C52.55926013 58.27818591 49.42235056 61.72328138 46 65 C38.31385736 60.11423491 31.16618528 54.60446639 24 49 C25.73119205 45.10910301 28.17866444 42.58187596 31.1484375 39.5859375 C33.84815639 36.03266097 33.84815639 36.03266097 37 27 C24.79 27 12.58 27 0 27 C0 18.09 0 9.18 0 0 Z " fill="#4381EE" transform="translate(114,100)"/>
<path d="M0 0 C1.74923027 1.28514877 3.49284865 2.57821881 5.21875 3.89453125 C6.75796204 5.05974935 8.30239258 6.21849129 9.8671875 7.34912109 C11.95002193 8.85588422 14.00633713 10.39459581 16.0625 11.9375 C16.7541626 12.42702148 17.4458252 12.91654297 18.15844727 13.42089844 C20.03066756 14.85116821 21.57812749 16.1198524 23 18 C22.94140625 21.47265625 22.94140625 21.47265625 22 25 C21.91235714 27.16529427 21.86974014 29.33293911 21.875 31.5 C21.87242188 32.5621875 21.86984375 33.624375 21.8671875 34.71875 C21.89978222 38.08190758 21.89978222 38.08190758 22.84375 41.59375 C23 45 23 45 20.7890625 47.625 C19.74492188 48.40875 18.70078125 49.1925 17.625 50 C16.80539795 50.63010986 16.80539795 50.63010986 15.96923828 51.27294922 C14.8574115 52.12507923 13.7380612 52.96748448 12.61132812 53.79980469 C10.31428996 55.51075008 8.10350254 57.32617605 5.875 59.125 C2.25806452 62 2.25806452 62 0 62 C-8.20753437 43.54346331 -9.15151209 26.07174486 -3 7 C-2.05612873 4.63603411 -1.04337707 2.32293405 0 0 Z " fill="#F5B706" transform="translate(52,81)"/>
</svg>
